<svg width="1909" height="8854" viewBox="0 0 1909 8854" fill="none" xmlns="http://www.w3.org/2000/svg">
<g clip-path="url(#clip0_1687_2)" filter="url(#filter0_d_1687_2)">
<g filter="url(#filter1_d_1687_2)">
<path d="M1350.86 1309.22H1387.86V1272.22H1350.86V1309.22ZM1041.01 1309.22V1272.22L1004.01 1272.22V1309.22H1041.01ZM1041.01 1930.92V1967.92H1078.01V1930.92H1041.01ZM733.177 1930.92H696.177V1967.92H733.177V1930.92ZM733.177 1309.22H770.177V1272.22H733.177V1309.22ZM250.297 1309.22H213.297V1346.22H250.297V1309.22ZM250.297 910.84V873.84H213.297V910.84L250.297 910.84ZM1658.7 910.84H1695.7V873.84H1658.7V910.84ZM1658.7 2015.43V2052.43H1695.7V2015.43H1658.7ZM1350.86 2015.43H1313.86V2052.43H1350.86V2015.43ZM1350.86 1272.22H1041.01V1346.22L1350.86 1346.22V1272.22ZM1004.01 1309.22V1930.92H1078.01V1309.22H1004.01ZM1041.01 1893.92L733.177 1893.92V1967.92L1041.01 1967.92V1893.92ZM770.177 1930.92V1309.22H696.177V1930.92H770.177ZM733.177 1272.22H250.297V1346.22H733.177V1272.22ZM287.297 1309.22L287.297 910.84L213.297 910.84L213.297 1309.22H287.297ZM250.297 947.84L1658.7 947.84V873.84L250.297 873.84V947.84ZM1621.7 910.84L1621.7 2015.43H1695.7L1695.7 910.84H1621.7ZM1658.7 1978.43H1350.86V2052.43H1658.7V1978.43ZM1387.86 2015.43L1387.86 1309.22H1313.86L1313.86 2015.43H1387.86ZM1658.7 4551.76L1647.28 4586.95L1695.7 4602.65V4551.76H1658.7ZM250.297 4095.03H213.297V4121.93L238.883 4130.23L250.297 4095.03ZM250.297 3668.49L239.195 3633.2L213.297 3641.34V3668.49H250.297ZM1107.41 3398.88L1118.51 3434.18L1228.27 3399.65L1118.96 3363.73L1107.41 3398.88ZM250.297 3117.2H213.297V3143.99L238.745 3152.35L250.297 3117.2ZM250.297 2690.66L238.883 2655.46L213.297 2663.76V2690.66H250.297ZM1658.7 2233.93H1695.7V2183.04L1647.28 2198.74L1658.7 2233.93ZM1658.7 2644.38L1669.83 2679.67L1695.7 2671.51V2644.38H1658.7ZM759.333 2928.07L748.202 2892.79L639.041 2927.22L747.703 2963.2L759.333 2928.07ZM1658.7 3225.85H1695.7V3199.13L1670.33 3190.73L1658.7 3225.85ZM1658.7 3592.03L1669.74 3627.35L1695.7 3619.23V3592.03H1658.7ZM751.285 3875.73L740.244 3840.41L629.637 3874.99L739.819 3910.9L751.285 3875.73ZM1658.7 4171.49H1695.7V4144.63L1670.16 4136.31L1658.7 4171.49ZM1670.11 4516.56L261.71 4059.84L238.883 4130.23L1647.28 4586.95L1670.11 4516.56ZM287.297 4095.03L287.297 3668.49H213.297L213.297 4095.03H287.297ZM261.399 3703.79L1118.51 3434.18L1096.31 3363.59L239.195 3633.2L261.399 3703.79ZM1118.96 3363.73L261.849 3082.05L238.745 3152.35L1095.86 3434.03L1118.96 3363.73ZM287.297 3117.2L287.297 2690.66H213.297L213.297 3117.2H287.297ZM261.71 2725.85L1670.11 2269.13L1647.28 2198.74L238.883 2655.46L261.71 2725.85ZM1621.7 2233.93V2644.38H1695.7V2233.93H1621.7ZM1647.57 2609.1L748.202 2892.79L770.464 2963.36L1669.83 2679.67L1647.57 2609.1ZM747.703 2963.2L1647.07 3260.98L1670.33 3190.73L770.963 2892.95L747.703 2963.2ZM1621.7 3225.85L1621.7 3592.03H1695.7V3225.85H1621.7ZM1647.66 3556.72L740.244 3840.41L762.326 3911.04L1669.74 3627.35L1647.66 3556.72ZM739.819 3910.9L1647.23 4206.67L1670.16 4136.31L762.751 3840.55L739.819 3910.9ZM1621.7 4171.49V4551.76H1695.7V4171.49H1621.7ZM558.133 5966.08V6003.08H595.133V5966.08H558.133ZM250.297 5966.08H213.297V6003.08H250.297V5966.08ZM250.297 4835.34V4798.34H213.297V4835.34H250.297ZM1658.7 4835.34H1695.7V4798.34H1658.7L1658.7 4835.34ZM1658.7 5939.93V5976.93H1695.7V5939.93H1658.7ZM1350.86 5939.93H1313.86V5976.93H1350.86V5939.93ZM1350.86 5229.69H1387.86V5192.69H1350.86V5229.69ZM1113.44 5229.69V5192.69H1076.44V5229.69H1113.44ZM1113.44 5855.42V5892.42H1150.44V5855.42H1113.44ZM815.669 5855.42H778.669V5892.42H815.669V5855.42ZM815.669 5229.69H852.669V5192.69H815.669V5229.69ZM558.133 5229.69V5192.69H521.133V5229.69H558.133ZM558.133 5929.08L250.297 5929.08V6003.08L558.133 6003.08V5929.08ZM287.297 5966.08L287.297 4835.34H213.297L213.297 5966.08H287.297ZM250.297 4872.34L1658.7 4872.34L1658.7 4798.34H250.297V4872.34ZM1621.7 4835.34L1621.7 5939.93H1695.7L1695.7 4835.34H1621.7ZM1658.7 5902.93H1350.86V5976.93H1658.7V5902.93ZM1387.86 5939.93L1387.86 5229.69H1313.86L1313.86 5939.93H1387.86ZM1350.86 5192.69H1113.44V5266.69H1350.86L1350.86 5192.69ZM1076.44 5229.69L1076.44 5855.42H1150.44L1150.44 5229.69H1076.44ZM1113.44 5818.42H815.669V5892.42H1113.44V5818.42ZM852.669 5855.42L852.669 5229.69H778.669L778.669 5855.42H852.669ZM815.669 5192.69H558.133V5266.69H815.669V5192.69ZM521.133 5229.69L521.133 5966.08H595.133L595.133 5229.69H521.133ZM984.677 7410.45L1017.62 7393.61L978.298 7316.67L949.754 7398.23L984.677 7410.45ZM851.885 7599.58L829.58 7570.06L829.42 7570.18L829.261 7570.3L851.885 7599.58ZM350.897 7519.1L320.239 7539.81L350.897 7519.1ZM250.297 6327.99L250.297 6290.99H213.297L213.297 6327.99H250.297ZM1658.7 6327.99H1695.7V6290.99H1658.7V6327.99ZM1558.1 7458.74L1527.99 7437.23L1527.89 7437.37L1527.79 7437.52L1558.1 7458.74ZM1109.42 7549.28L1129.03 7517.9L1128.92 7517.83L1128.81 7517.77L1109.42 7549.28ZM1370.98 6722.34H1407.98V6685.34H1370.98V6722.34ZM1099.36 6722.34V6685.34H1062.36V6722.34H1099.36ZM823.717 6722.34H860.717V6685.34H823.717V6722.34ZM538.013 6722.34V6685.34H501.013V6722.34H538.013ZM949.754 7398.23C923.679 7472.73 883.401 7529.39 829.58 7570.06L874.19 7629.1C941.089 7578.55 989.339 7509.13 1019.6 7422.67L949.754 7398.23ZM829.261 7570.3C777.572 7610.24 714.061 7630.98 636.601 7630.98V7704.98C728.149 7704.98 808.161 7680.12 874.509 7628.85L829.261 7570.3ZM636.601 7630.98C525.044 7630.98 441.496 7587.1 381.555 7498.38L320.239 7539.81C394.431 7649.62 501.352 7704.98 636.601 7704.98V7630.98ZM381.555 7498.38C320.357 7407.81 287.297 7272.8 287.297 7088.53H213.297C213.297 7279.83 247.304 7431.87 320.239 7539.81L381.555 7498.38ZM287.297 7088.53V6327.99H213.297V7088.53H287.297ZM250.297 6364.99L1658.7 6364.99V6290.99L250.297 6290.99L250.297 6364.99ZM1621.7 6327.99L1621.7 7048.29H1695.7L1695.7 6327.99H1621.7ZM1621.7 7048.29C1621.7 7224.32 1588.7 7352.23 1527.99 7437.23L1588.21 7480.24C1661.62 7377.46 1695.7 7231.73 1695.7 7048.29H1621.7ZM1527.79 7437.52C1468.84 7521.72 1390.85 7562.58 1290.5 7562.58V7636.58C1415.49 7636.58 1515.9 7583.54 1588.41 7479.96L1527.79 7437.52ZM1290.5 7562.58C1229.93 7562.58 1176.45 7547.54 1129.03 7517.9L1089.81 7580.65C1149.7 7618.09 1216.93 7636.58 1290.5 7636.58V7562.58ZM1128.81 7517.77C1082.87 7489.49 1045.72 7448.57 1017.62 7393.61L951.731 7427.29C985.339 7493.04 1031.35 7544.68 1090.03 7580.79L1128.81 7517.77ZM1370.98 6685.34H1099.36V6759.34H1370.98V6685.34ZM1062.36 6722.34V6995.98H1136.36V6722.34H1062.36ZM1062.36 6995.98C1062.36 7066.08 1074.07 7125.18 1102.97 7167.68C1133.61 7212.74 1180.1 7234.18 1236.18 7234.18V7160.18C1201.04 7160.18 1179.13 7148.08 1164.16 7126.07C1147.46 7101.5 1136.36 7060.01 1136.36 6995.98H1062.36ZM1236.18 7234.18C1291.81 7234.18 1337.82 7212.55 1368.02 7167.47C1396.46 7125.02 1407.98 7066.01 1407.98 6995.98H1333.98C1333.98 7060.08 1323.03 7101.67 1306.54 7126.28C1291.81 7148.27 1270.41 7160.18 1236.18 7160.18V7234.18ZM1407.98 6995.98L1407.98 6722.34H1333.98L1333.98 6995.98H1407.98ZM501.013 7056.34C501.013 7129.14 513.229 7190.28 543.168 7234.13C574.837 7280.52 622.841 7302.58 680.865 7302.58V7228.58C643.654 7228.58 620.232 7215.77 604.284 7192.41C586.605 7166.52 575.013 7123.03 575.013 7056.34H501.013ZM680.865 7302.58C738.889 7302.58 786.893 7280.52 818.562 7234.13C848.5 7190.28 860.717 7129.14 860.717 7056.34H786.717C786.717 7123.03 775.125 7166.52 757.446 7192.41C741.497 7215.77 718.075 7228.58 680.865 7228.58V7302.58ZM860.717 7056.34V6722.34H786.717V7056.34H860.717ZM823.717 6685.34H538.013V6759.34H823.717V6685.34ZM501.013 6722.34V7056.34H575.013V6722.34H501.013Z" fill="#FF4534"/>
</g>
</g>
<defs>
<filter id="filter0_d_1687_2" x="-233" y="-246" width="2386" height="9354" filterUnits="userSpaceOnUse" color-interpolation-filters="sRGB">
<feFlood flood-opacity="0" result="BackgroundImageFix"/>
<feColorMatrix in="SourceAlpha" type="matrix" values="0 0 0 0 0 0 0 0 0 0 0 0 0 0 0 0 0 0 127 0" result="hardAlpha"/>
<feOffset dy="4"/>
<feGaussianBlur stdDeviation="125"/>
<feComposite in2="hardAlpha" operator="out"/>
<feColorMatrix type="matrix" values="0 0 0 0 0 0 0 0 0 0 0 0 0 0 0 0 0 0 1 0"/>
<feBlend mode="normal" in2="BackgroundImageFix" result="effect1_dropShadow_1687_2"/>
<feBlend mode="normal" in="SourceGraphic" in2="effect1_dropShadow_1687_2" result="shape"/>
</filter>
<filter id="filter1_d_1687_2" x="173.297" y="835.84" width="1566.4" height="6915.15" filterUnits="userSpaceOnUse" color-interpolation-filters="sRGB">
<feFlood flood-opacity="0" result="BackgroundImageFix"/>
<feColorMatrix in="SourceAlpha" type="matrix" values="0 0 0 0 0 0 0 0 0 0 0 0 0 0 0 0 0 0 127 0" result="hardAlpha"/>
<feOffset dx="2" dy="4"/>
<feGaussianBlur stdDeviation="39.5"/>
<feComposite in2="hardAlpha" operator="out"/>
<feColorMatrix type="matrix" values="0 0 0 0 1 0 0 0 0 0.270588 0 0 0 0 0.203922 0 0 0 1 0"/>
<feBlend mode="normal" in2="BackgroundImageFix" result="effect1_dropShadow_1687_2"/>
<feBlend mode="normal" in="SourceGraphic" in2="effect1_dropShadow_1687_2" result="shape"/>
</filter>
<clipPath id="clip0_1687_2">
<rect width="1886" height="8854" fill="white" transform="translate(17)"/>
</clipPath>
</defs>
</svg>
